<svg width="22" height="21" viewBox="0 0 22 21" fill="none" xmlns="http://www.w3.org/2000/svg">
<path d="M11.951 1.92696C11.652 1.00596 10.349 1.00596 10.049 1.92696L8.52997 6.60096C8.46455 6.80161 8.33732 6.97641 8.1665 7.10035C7.99568 7.22429 7.79002 7.29101 7.57897 7.29096H2.66497C1.69697 7.29096 1.29297 8.53096 2.07697 9.10096L6.05297 11.989C6.22377 12.1131 6.35087 12.2882 6.41608 12.489C6.48129 12.6898 6.48125 12.9061 6.41597 13.107L4.89797 17.781C4.59797 18.702 5.65297 19.469 6.43597 18.899L10.412 16.011C10.5829 15.8867 10.7887 15.8198 11 15.8198C11.2112 15.8198 11.4171 15.8867 11.588 16.011L15.564 18.899C16.347 19.469 17.402 18.703 17.102 17.781L15.584 13.107C15.5187 12.9061 15.5187 12.6898 15.5839 12.489C15.6491 12.2882 15.7762 12.1131 15.947 11.989L19.923 9.10096C20.706 8.53096 20.304 7.29096 19.335 7.29096H14.42C14.2091 7.2908 14.0037 7.22399 13.833 7.10006C13.6624 6.97614 13.5353 6.80144 13.47 6.60096L11.951 1.92696Z" stroke="#001A72" stroke-width="1.6" stroke-linecap="round" stroke-linejoin="round"/>
</svg>
